<?xml version="1.0" encoding="utf-8"?>
<!-- Generator: Adobe Illustrator 23.0.3, SVG Export Plug-In . SVG Version: 6.00 Build 0)  -->
<svg version="1.1" id="Layer_1" xmlns="http://www.w3.org/2000/svg" xmlns:xlink="http://www.w3.org/1999/xlink" x="0px" y="0px"
	 viewBox="0 0 353 53" style="enable-background:new 0 0 353 53;" xml:space="preserve">
<style type="text/css">
	.st0{fill:#000000;}
	.st1{fill:#F04B19;}
</style>
<path class="st0" d="M76.7,29.6v8.6H74V16.9h6.8c2.4,0,4.3,0.6,5.5,1.7s1.8,2.7,1.8,4.7s-0.6,3.6-1.9,4.7c-1.2,1.1-3.1,1.7-5.4,1.7
	h-4.1V29.6z M84.1,26.2c0.7-0.7,1.1-1.7,1.1-3s-0.4-2.3-1.1-3s-1.9-1-3.6-1h-3.8v8.1h3.8C82.2,27.3,83.4,26.9,84.1,26.2z"/>
<path class="st0" d="M104.9,16.9v12.8c0,2.1,0.5,3.6,1.4,4.6s2.2,1.5,3.8,1.5c1.6,0,2.9-0.5,3.8-1.5s1.4-2.5,1.4-4.6V16.9h2.7v12.8
	c0,2.9-0.7,5.1-2.2,6.5c-1.4,1.5-3.4,2.2-5.8,2.2s-4.3-0.7-5.8-2.2c-1.4-1.5-2.2-3.6-2.2-6.5V16.9H104.9z"/>
<path class="st0" d="M145.6,35.4c-0.5,0.9-1.2,1.6-2.2,2.1s-2.2,0.8-3.7,0.8c-1.4,0-2.7-0.3-3.8-0.8s-2-1.2-2.6-2.1
	c-0.7-0.9-1-1.9-1.1-3.1h2.9c0.1,0.6,0.3,1.2,0.6,1.8c0.4,0.6,0.9,1,1.5,1.4c0.7,0.4,1.4,0.6,2.4,0.6c1.2,0,2.1-0.3,2.8-1
	c0.6-0.6,1-1.5,1-2.5c0-0.9-0.2-1.6-0.7-2.1s-1-1-1.7-1.3s-1.6-0.6-2.7-1c-1.3-0.4-2.4-0.9-3.2-1.3s-1.5-1-2.1-1.8s-0.9-1.8-0.9-3.1
	c0-1.1,0.3-2.1,0.8-2.9s1.3-1.5,2.3-2s2.2-0.7,3.5-0.7c2.1,0,3.8,0.5,5,1.5s1.9,2.3,2.1,3.9h-3c-0.2-0.8-0.6-1.6-1.3-2.2
	s-1.7-1-2.9-1c-1.1,0-2,0.3-2.7,0.9s-1,1.4-1,2.4c0,0.8,0.2,1.5,0.6,2c0.4,0.5,1,0.9,1.6,1.2c0.6,0.3,1.5,0.6,2.7,1
	c1.4,0.4,2.5,0.9,3.3,1.3s1.5,1,2.1,1.8s0.9,1.9,0.9,3.2C146.3,33.6,146.1,34.6,145.6,35.4z"/>
<path class="st0" d="M176.5,16.9v21.3h-2.8v-9.8h-10.8v9.8h-2.7V16.9h2.7v9.2h10.8v-9.2C173.7,16.9,176.5,16.9,176.5,16.9z"/>
<path class="st0" d="M202.1,33.2h-9.4l-1.8,4.9h-3l7.9-20.9h3.1l7.9,20.9h-3L202.1,33.2z M201.3,31.1l-3.9-10.8l-3.9,10.8
	C193.5,31.1,201.3,31.1,201.3,31.1z"/>
<path class="st0" d="M233.9,16.9v2.2h-6v19.1h-2.7V19.1h-6v-2.2H233.9z"/>
<path class="st0" d="M261,18c1.6,0.9,2.8,2.2,3.7,3.9c0.9,1.7,1.4,3.5,1.4,5.6s-0.5,4-1.4,5.6c-0.9,1.7-2.2,3-3.7,3.9
	c-1.6,0.9-3.4,1.4-5.3,1.4c-2,0-3.8-0.5-5.4-1.4c-1.6-0.9-2.9-2.2-3.8-3.9c-0.9-1.7-1.4-3.5-1.4-5.6s0.5-4,1.4-5.6
	c0.9-1.7,2.2-3,3.8-3.9s3.4-1.4,5.4-1.4C257.6,16.6,259.4,17.1,261,18z M251.7,20.2c-1.2,0.7-2.1,1.6-2.7,2.9c-0.7,1.3-1,2.7-1,4.4
	c0,1.7,0.3,3.1,1,4.4c0.7,1.3,1.6,2.2,2.7,2.9c1.2,0.7,2.5,1,3.9,1c1.5,0,2.8-0.3,3.9-1c1.2-0.7,2.1-1.7,2.7-2.9
	c0.7-1.3,1-2.7,1-4.4c0-1.7-0.3-3.2-1-4.4c-0.7-1.3-1.6-2.2-2.7-2.9c-1.2-0.7-2.5-1-3.9-1C254.2,19.2,252.9,19.5,251.7,20.2z"/>
<path class="st0" d="M295.4,17.2v20.9h-2.7V21.5L286,38.2h-2.4l-6.7-16.6v16.6h-2.7v-21h3.3l7.4,17.6l7.3-17.6
	C292.2,17.2,295.4,17.2,295.4,17.2z"/>
<path class="st0" d="M315.2,16.9v21.3h-2.7V16.9H315.2z"/>
<path class="st0" d="M349.5,18.6c1.7,1.3,2.9,3,3.5,5.2h-2.9c-0.5-1.4-1.4-2.5-2.6-3.4c-1.2-0.8-2.7-1.3-4.4-1.3
	c-1.4,0-2.6,0.3-3.7,1s-2,1.6-2.6,2.9s-1,2.7-1,4.4c0,1.7,0.3,3.1,1,4.4c0.6,1.2,1.5,2.2,2.6,2.9s2.3,1,3.7,1c1.8,0,3.2-0.4,4.4-1.3
	c1.2-0.8,2.1-2,2.6-3.4h2.9c-0.6,2.2-1.8,4-3.5,5.2c-1.7,1.3-3.8,1.9-6.4,1.9c-2,0-3.8-0.5-5.3-1.4s-2.7-2.2-3.6-3.8
	c-0.9-1.6-1.3-3.5-1.3-5.6s0.4-4,1.3-5.6c0.9-1.7,2-2.9,3.6-3.9c1.5-0.9,3.3-1.4,5.3-1.4C345.7,16.7,347.8,17.3,349.5,18.6z"/>
<g>
	<path class="st1" d="M4.9,26.5c0-3.9,1.1-7.6,3-10.7c-1.3-0.5-2.3-1.4-3.1-2.5C2.4,17.1,1,21.6,1,26.5l0.1,22.4c0,0.4,0,1.5,0.5,2
		s1.3,0.7,2,0.5l10-3.2c3.8,2.2,8.1,3.3,12.4,3.3c13.8,0,25-11.2,25-25s-11.2-25-25-25c-4.2,0-8.1,1-11.6,2.9
		c1.1,0.8,1.9,1.9,2.3,3.2c2.8-1.4,6-2.2,9.3-2.2c11.6,0,21.1,9.5,21.1,21.1S37.6,47.6,26,47.6c-4,0-7.8-1.1-11.2-3.2
		c-0.5-0.3-1.1-0.4-1.6-0.2L5,47L4.9,26.5z"/>
	<circle class="st1" cx="10.4" cy="9.6" r="3.6"/>
	<circle class="st1" cx="26" cy="26.5" r="6.1"/>
</g>
</svg>
